<?xml version="1.0" encoding="utf-8"?>
<!-- Generator: Adobe Illustrator 21.0.2, SVG Export Plug-In . SVG Version: 6.00 Build 0)  -->
<svg version="1.1" id="Layer_1" xmlns="http://www.w3.org/2000/svg" xmlns:xlink="http://www.w3.org/1999/xlink" x="0px" y="0px"
	 viewBox="0 0 150 150" style="enable-background:new 0 0 150 150;" xml:space="preserve">
<style type="text/css">
	.st0{fill:#D2F0F7;}
	.st1{fill:none;stroke:#00B2D6;stroke-width:1.9659;stroke-linecap:round;stroke-linejoin:round;stroke-miterlimit:10;}
	.st2{fill:#00B2D6;}
	.st3{fill:none;stroke:#00B2D6;stroke-width:1.9659;stroke-miterlimit:10;}
	.st4{fill:none;stroke:#FFD446;stroke-width:1.9659;stroke-linecap:round;stroke-linejoin:round;}
</style>
<path class="st0" d="M79.3,56.8c-1.7,0.1-3.2,0.6-4.7,1.2c-5.8,3.3-9.5,9.8-8.9,17.1c0.1,1.2,0.3,2.3,0.6,3.3
	c0.4-0.3,0.8-0.5,1.3-0.5c0.6,0,1.1,0.1,1.6,0.4c1.3,0.8,1.6,2.4,0.9,3.7l-1.2,2c3.4,5,9.1,8.2,15.4,7.7c8.2-1.8,14-9.6,13.4-18.5
	C96.8,63.4,88.6,56.1,79.3,56.8z"/>
<g>
	<g>
		<path class="st0" d="M94.9,101.3l-4.7,0.9c1.1,5.4-3.1,10.7-9.6,12.2c1.4,0.1,2.9,0.1,4.3-0.2C92,112.8,96.5,107,94.9,101.3z"/>
		<path class="st1" d="M82.7,104.4c0,0,29.4-6.8,36.8-8.5s6.1-10.9-3-12.8S104.6,66.8,97,49S69.5,35.8,69.5,35.8l-2.1,0.5
			c0,0-19.9,4.6-18.9,24c1,19.3,4.9,33.4-2.4,39.1s-4.4,14.5,3,12.8s33.3-7.7,33.3-7.7"/>
		<g>
			<path class="st1" d="M61.4,69.9c1.6-6.3,6.6-11.5,13.3-13c9.7-2.2,19.3,3.8,21.6,13.4c2.2,9.7-3.8,19.3-13.4,21.6
				c-5.2,1.2-10.4,0-14.5-2.8"/>
			<g>
				<g>
					<path class="st2" d="M80,82.5c-0.8,0.1-1.6,0.1-2.3-0.1c-0.7-0.2-1.3-0.4-1.8-0.7c-0.5-0.3-0.9-0.7-1.2-1.2
						c-0.3-0.4-0.5-0.9-0.6-1.3c-0.1-0.3,0-0.7,0.2-1s0.5-0.5,0.9-0.6c0.3-0.1,0.6-0.1,0.8,0c0.2,0.1,0.4,0.3,0.6,0.5
						c0.3,0.5,0.6,0.9,0.8,1.2c0.2,0.3,0.5,0.5,0.8,0.7s0.8,0.3,1.3,0.3l-1.1-4.9c-1,0-1.8-0.2-2.5-0.3c-0.7-0.2-1.3-0.5-1.8-1
						S73.2,72.9,73,72c-0.3-1.2-0.1-2.3,0.5-3.2s1.6-1.6,3-2.1 M77.7,66.3c0.8-0.1,1.4-0.1,2,0s1.1,0.4,1.6,0.7
						c0.4,0.3,0.7,0.6,1,0.9c0.3,0.3,0.4,0.7,0.5,1c0.1,0.4,0,0.7-0.2,1c-0.2,0.3-0.5,0.5-0.8,0.6c-0.7,0.2-1.2-0.1-1.6-0.8
						c-0.4-0.8-1.1-1.3-2.1-1.4l1,4.4c0.9,0,1.7,0.1,2.2,0.2c0.6,0.1,1.1,0.3,1.6,0.5c0.5,0.3,1,0.7,1.3,1.1c0.4,0.5,0.6,1,0.8,1.7
						c0.2,0.8,0.2,1.6,0,2.4s-0.6,1.5-1.3,2.1c-0.6,0.6-1.4,1.1-2.4,1.4 M77.8,72.7l-0.9-4c-0.5,0.3-0.9,0.6-1.2,1s-0.3,0.8-0.2,1.4
						c0.1,0.6,0.4,0.9,0.8,1.1C76.5,72.5,77.1,72.6,77.8,72.7z M79.8,75.5l1.1,4.6c0.7-0.3,1.2-0.7,1.4-1.2c0.3-0.5,0.4-1.1,0.2-1.6
						c-0.1-0.6-0.4-1-0.9-1.3C81.2,75.7,80.6,75.6,79.8,75.5z"/>
				</g>
				<path class="st2" d="M81.1,84.1L81.1,84.1c-0.6,0.1-1.2-0.2-1.3-0.8l-4-17.3c-0.1-0.6,0.2-1.2,0.8-1.3l0,0
					c0.6-0.1,1.2,0.2,1.3,0.8l4,17.3C82,83.4,81.7,84,81.1,84.1z"/>
			</g>
			<g>
				<polyline class="st1" points="67.7,80.5 63.9,86.6 57.8,82.8 				"/>
				<line class="st1" x1="63.8" y1="86" x2="61.3" y2="75.2"/>
			</g>
		</g>
		<path class="st1" d="M62.5,37.1c-0.7-3.2,1.3-6.4,4.5-7.2c3.2-0.7,6.4,1.3,7.2,4.5"/>
		<path class="st3" d="M95,102c1.3,5.4-2.1,10.8-7.5,12.1c-5.4,1.3-10.8-2.1-12.1-7.5"/>
	</g>
	<path class="st4" d="M32.2,81.8c-4-3.3-6.7-8.2-7.2-13.8c-0.4-5.2,1.3-10.1,4.3-13.9"/>
	<path class="st4" d="M38.6,77c-2.7-2.2-4.5-5.5-4.8-9.2c-0.3-3.5,0.9-6.8,2.9-9.3"/>
	<path class="st4" d="M120,71.8c3.5-3.9,5.4-9.1,5-14.7c-0.4-5.2-2.8-9.8-6.3-13.1"/>
	<path class="st4" d="M112.9,68.1c2.3-2.6,3.6-6.1,3.4-9.8c-0.3-3.5-1.9-6.6-4.3-8.8"/>
</g>
<ellipse class="st0" cx="81.7" cy="127.4" rx="28.5" ry="3.9"/>
</svg>
